<svg width="92" height="69" viewBox="0 0 92 69" fill="none" xmlns="http://www.w3.org/2000/svg">
<rect x="14.5" y="0.5" width="62" height="68" stroke="#DDDDDD"/>
<path d="M3.91406 43H2.47266V25.9375H3.91406V43ZM21.2578 43H19.8164L10.0078 28.3984V43H8.55469V25.9375H10.0078L19.8281 40.5508V25.9375H21.2578V43ZM25.5938 43V25.9375H30.3633C31.7617 25.9375 33.0156 26.2578 34.125 26.8984C35.2344 27.5312 36.0977 28.4414 36.7148 29.6289C37.3398 30.8164 37.6523 32.168 37.6523 33.6836V35.2539C37.6523 36.7773 37.3438 38.1289 36.7266 39.3086C36.1094 40.4883 35.2383 41.3984 34.1133 42.0391C32.9961 42.6797 31.7109 43 30.2578 43H25.5938ZM27.0352 27.168V41.7812H30.2695C32.0664 41.7812 33.5078 41.1875 34.5938 40C35.6797 38.8047 36.2227 37.1914 36.2227 35.1602V33.6602C36.2227 31.6992 35.6875 30.1289 34.6172 28.9492C33.5469 27.7695 32.1367 27.1758 30.3867 27.168H27.0352ZM43.0781 43H41.6367V25.9375H43.0781V43ZM57.1406 34.8203H49.1602V41.7812H58.3359V43H47.7188V25.9375H58.2773V27.168H49.1602V33.6016H57.1406V34.8203ZM73.6992 40.9727C73.1992 41.6836 72.4141 42.2383 71.3438 42.6367C70.2812 43.0352 69.0898 43.2344 67.7695 43.2344C66.4336 43.2344 65.2461 42.9141 64.207 42.2734C63.168 41.6328 62.3633 40.7266 61.793 39.5547C61.2227 38.3828 60.9336 37.0391 60.9258 35.5234V33.3672C60.9258 31 61.5234 29.1328 62.7188 27.7656C63.9141 26.3906 65.5195 25.7031 67.5352 25.7031C69.293 25.7031 70.707 26.1523 71.7773 27.0508C72.8477 27.9414 73.4844 29.1719 73.6875 30.7422H72.2461C72.0352 29.4922 71.5234 28.5469 70.7109 27.9062C69.9062 27.2578 68.8516 26.9336 67.5469 26.9336C65.9531 26.9336 64.6914 27.5 63.7617 28.6328C62.832 29.7656 62.3672 31.3633 62.3672 33.4258V35.4414C62.3672 36.7383 62.5859 37.8867 63.0234 38.8867C63.4688 39.8789 64.1016 40.6484 64.9219 41.1953C65.75 41.7422 66.6992 42.0156 67.7695 42.0156C69.0117 42.0156 70.0781 41.8203 70.9688 41.4297C71.5469 41.1719 71.9766 40.8711 72.2578 40.5273V36.1211H67.6758V34.9023H73.6992V40.9727ZM90.3984 35.3945C90.3984 36.9648 90.125 38.3438 89.5781 39.5312C89.0391 40.7188 88.2656 41.6328 87.2578 42.2734C86.25 42.9141 85.0859 43.2344 83.7656 43.2344C81.7734 43.2344 80.1641 42.5234 78.9375 41.1016C77.7109 39.6719 77.0977 37.7461 77.0977 35.3242V33.5664C77.0977 32.0117 77.3711 30.6367 77.918 29.4414C78.4727 28.2383 79.2539 27.3164 80.2617 26.6758C81.2695 26.0273 82.4297 25.7031 83.7422 25.7031C85.0547 25.7031 86.2109 26.0195 87.2109 26.6523C88.2188 27.2852 88.9961 28.1797 89.543 29.3359C90.0898 30.4922 90.375 31.832 90.3984 33.3555V35.3945ZM88.957 33.543C88.957 31.4883 88.4922 29.8789 87.5625 28.7148C86.6328 27.5508 85.3594 26.9688 83.7422 26.9688C82.1562 26.9688 80.8906 27.5547 79.9453 28.7266C79.0078 29.8906 78.5391 31.5195 78.5391 33.6133V35.3945C78.5391 37.418 79.0078 39.0234 79.9453 40.2109C80.8828 41.3906 82.1562 41.9805 83.7656 41.9805C85.3984 41.9805 86.6719 41.3984 87.5859 40.2344C88.5 39.0625 88.957 37.4336 88.957 35.3477V33.543Z" fill="#666666"/>
</svg>
