<svg width="51" height="47" viewBox="0 0 51 47" fill="none" xmlns="http://www.w3.org/2000/svg">
<path d="M11.5625 13.9102C11.5625 13.1836 11.3906 12.5703 11.0469 12.0703C10.7109 11.5625 10.1758 11.1172 9.44141 10.7344C8.71484 10.3438 7.61328 9.94531 6.13672 9.53906C4.66016 9.13281 3.55078 8.72266 2.80859 8.30859C2.07422 7.89453 1.53516 7.41406 1.19141 6.86719C0.847656 6.32031 0.675781 5.65625 0.675781 4.875C0.675781 3.63281 1.19922 2.62891 2.24609 1.86328C3.29297 1.08984 4.65625 0.703125 6.33594 0.703125C7.42969 0.703125 8.41016 0.917969 9.27734 1.34766C10.1523 1.76953 10.8281 2.36719 11.3047 3.14062C11.7812 3.90625 12.0195 4.77344 12.0195 5.74219H11.3867C11.3867 4.46875 10.918 3.41797 9.98047 2.58984C9.04297 1.75391 7.82812 1.33594 6.33594 1.33594C4.83594 1.33594 3.62109 1.67188 2.69141 2.34375C1.76953 3.00781 1.30859 3.84375 1.30859 4.85156C1.30859 5.875 1.71094 6.69922 2.51562 7.32422C3.32031 7.94922 4.64844 8.50391 6.5 8.98828C8.35156 9.46484 9.70703 10.0195 10.5664 10.6523C11.6602 11.457 12.207 12.5352 12.207 13.8867C12.207 14.7461 11.9648 15.5078 11.4805 16.1719C10.9961 16.8281 10.3086 17.3359 9.41797 17.6953C8.52734 18.0547 7.52734 18.2344 6.41797 18.2344C5.18359 18.2344 4.07422 18.0312 3.08984 17.625C2.10547 17.2109 1.36328 16.625 0.863281 15.8672C0.371094 15.1094 0.125 14.2148 0.125 13.1836H0.757812C0.757812 14.582 1.28125 15.668 2.32812 16.4414C3.375 17.2148 4.73828 17.6016 6.41797 17.6016C7.91016 17.6016 9.14062 17.2617 10.1094 16.582C11.0781 15.8945 11.5625 15.0039 11.5625 13.9102ZM16.6484 18H16.0156V0.9375H16.6484V18ZM33.8281 16.1719C33.3984 16.7656 32.6445 17.2578 31.5664 17.6484C30.4883 18.0391 29.3008 18.2344 28.0039 18.2344C26.7383 18.2344 25.6094 17.9258 24.6172 17.3086C23.625 16.6914 22.8477 15.8203 22.2852 14.6953C21.7305 13.5703 21.4453 12.2969 21.4297 10.875V7.94531C21.4297 6.54688 21.6992 5.29297 22.2383 4.18359C22.7773 3.07422 23.5352 2.21875 24.5117 1.61719C25.4883 1.00781 26.5859 0.703125 27.8047 0.703125C29.5 0.703125 30.8789 1.13672 31.9414 2.00391C33.0117 2.87109 33.6328 4.05469 33.8047 5.55469H33.1719C32.9609 4.19531 32.3945 3.15234 31.4727 2.42578C30.5508 1.69922 29.3281 1.33594 27.8047 1.33594C26.0859 1.33594 24.6992 1.94922 23.6445 3.17578C22.5898 4.40234 22.0625 6.01562 22.0625 8.01562V10.7344C22.0625 12.0703 22.3086 13.2617 22.8008 14.3086C23.3008 15.3555 24 16.168 24.8984 16.7461C25.8047 17.3164 26.8398 17.6016 28.0039 17.6016C29.1445 17.6016 30.2031 17.4336 31.1797 17.0977C32.1562 16.7617 32.8281 16.3555 33.1953 15.8789V10.9102H27.9805V10.2656H33.8281V16.1719ZM50.5742 18H49.9414L38.9258 2.01562V18H38.2812V0.9375H38.9258L49.9414 16.8867V0.9375H50.5742V18ZM12.8281 28.9375V40.4922C12.8281 42.2969 12.3047 43.707 11.2578 44.7227C10.2109 45.7305 8.79297 46.2344 7.00391 46.2344C5.21484 46.2344 3.79688 45.7305 2.75 44.7227C1.70312 43.707 1.17578 42.3125 1.16797 40.5391V28.9375H1.80078V40.4688C1.80078 42.0469 2.27344 43.2969 3.21875 44.2188C4.17188 45.1406 5.43359 45.6016 7.00391 45.6016C8.57422 45.6016 9.83203 45.1406 10.7773 44.2188C11.7227 43.2969 12.1953 42.043 12.1953 40.457V28.9375H12.8281ZM17.9844 38.793V46H17.3516V28.9375H22.6836C24.4258 28.9375 25.7773 29.3789 26.7383 30.2617C27.707 31.1367 28.1914 32.3555 28.1914 33.918C28.1914 35.4648 27.7188 36.6602 26.7734 37.5039C25.8359 38.3477 24.5 38.7773 22.7656 38.793H17.9844ZM17.9844 38.1602H22.6836C24.2227 38.1602 25.418 37.7891 26.2695 37.0469C27.1289 36.3047 27.5586 35.2695 27.5586 33.9414C27.5586 32.5664 27.1289 31.4961 26.2695 30.7305C25.418 29.957 24.2227 29.5703 22.6836 29.5703H17.9844V38.1602Z" fill="#666666"/>
</svg>
