<svg width="40" height="46" viewBox="0 0 40 46" fill="none" xmlns="http://www.w3.org/2000/svg">
<path d="M0.988281 17.3672H9.74219V18H0.34375V0.9375H0.988281V17.3672ZM24.0508 10.7461C24.0508 12.2227 23.7852 13.5312 23.2539 14.6719C22.7305 15.8047 21.9805 16.6836 21.0039 17.3086C20.0273 17.9258 18.9023 18.2344 17.6289 18.2344C15.707 18.2344 14.1523 17.5508 12.9648 16.1836C11.7773 14.8164 11.1836 12.9727 11.1836 10.6523V8.19141C11.1836 6.72266 11.4453 5.41797 11.9688 4.27734C12.5 3.13672 13.2539 2.25781 14.2305 1.64062C15.2148 1.01563 16.3398 0.703125 17.6055 0.703125C18.8789 0.703125 20.0039 1.01563 20.9805 1.64062C21.9648 2.25781 22.7227 3.14062 23.2539 4.28906C23.7852 5.42969 24.0508 6.73047 24.0508 8.19141V10.7461ZM23.418 8.16797C23.418 6.10547 22.8945 4.45312 21.8477 3.21094C20.8008 1.96094 19.3867 1.33594 17.6055 1.33594C15.8477 1.33594 14.4453 1.95703 13.3984 3.19922C12.3516 4.43359 11.8281 6.11719 11.8281 8.25V10.7461C11.8281 12.1055 12.0625 13.3086 12.5312 14.3555C13.0078 15.3945 13.6836 16.1953 14.5586 16.7578C15.4336 17.3203 16.457 17.6016 17.6289 17.6016C19.4102 17.6016 20.8203 16.9805 21.8594 15.7383C22.8984 14.4961 23.418 12.8008 23.418 10.6523V8.16797ZM39.9766 16.1719C39.5469 16.7656 38.793 17.2578 37.7148 17.6484C36.6367 18.0391 35.4492 18.2344 34.1523 18.2344C32.8867 18.2344 31.7578 17.9258 30.7656 17.3086C29.7734 16.6914 28.9961 15.8203 28.4336 14.6953C27.8789 13.5703 27.5938 12.2969 27.5781 10.875V7.94531C27.5781 6.54688 27.8477 5.29297 28.3867 4.18359C28.9258 3.07422 29.6836 2.21875 30.6602 1.61719C31.6367 1.00781 32.7344 0.703125 33.9531 0.703125C35.6484 0.703125 37.0273 1.13672 38.0898 2.00391C39.1602 2.87109 39.7812 4.05469 39.9531 5.55469H39.3203C39.1094 4.19531 38.543 3.15234 37.6211 2.42578C36.6992 1.69922 35.4766 1.33594 33.9531 1.33594C32.2344 1.33594 30.8477 1.94922 29.793 3.17578C28.7383 4.40234 28.2109 6.01562 28.2109 8.01562V10.7344C28.2109 12.0703 28.457 13.2617 28.9492 14.3086C29.4492 15.3555 30.1484 16.168 31.0469 16.7461C31.9531 17.3164 32.9883 17.6016 34.1523 17.6016C35.293 17.6016 36.3516 17.4336 37.3281 17.0977C38.3047 16.7617 38.9766 16.3555 39.3438 15.8789V10.9102H34.1289V10.2656H39.9766V16.1719ZM1.44531 46H0.8125V28.9375H1.44531V46ZM18.8945 46H18.2617L7.24609 30.0156V46H6.60156V28.9375H7.24609L18.2617 44.8867V28.9375H18.8945V46Z" fill="#666666"/>
</svg>
