<svg width="92" height="69" viewBox="0 0 92 69" fill="none" xmlns="http://www.w3.org/2000/svg">
<rect x="14.25" y="0.25" width="62.5" height="68.5" stroke="#DDDDDD" stroke-width="0.5"/>
<path d="M3.44531 43H2.8125V25.9375H3.44531V43ZM20.8945 43H20.2617L9.24609 27.0156V43H8.60156V25.9375H9.24609L20.2617 41.8867V25.9375H20.8945V43ZM25.5938 43V25.9375H30.3164C31.6367 25.9375 32.832 26.25 33.9023 26.875C34.9727 27.5 35.8125 28.3789 36.4219 29.5117C37.0312 30.6367 37.3438 31.8984 37.3594 33.2969V35.5117C37.3594 36.9336 37.0586 38.2148 36.457 39.3555C35.8633 40.4961 35.0312 41.3867 33.9609 42.0273C32.8906 42.668 31.6953 42.9922 30.375 43H25.5938ZM26.2266 26.5703V42.3672H30.3164C31.5117 42.3672 32.5977 42.0781 33.5742 41.5C34.5586 40.9141 35.3281 40.1016 35.8828 39.0625C36.4375 38.0156 36.7188 36.8555 36.7266 35.582V33.3906C36.7266 32.1172 36.4531 30.9609 35.9062 29.9219C35.3672 28.8828 34.6094 28.0703 33.6328 27.4844C32.6641 26.8906 31.5898 26.5859 30.4102 26.5703H26.2266ZM42.3984 43H41.7656V25.9375H42.3984V43ZM56.7422 34.5391H48.1875V42.3672H57.9375V43H47.5547V25.9375H57.9375V26.5703H48.1875V33.9062H56.7422V34.5391ZM73.2422 41.1719C72.8125 41.7656 72.0586 42.2578 70.9805 42.6484C69.9023 43.0391 68.7148 43.2344 67.418 43.2344C66.1523 43.2344 65.0234 42.9258 64.0312 42.3086C63.0391 41.6914 62.2617 40.8203 61.6992 39.6953C61.1445 38.5703 60.8594 37.2969 60.8438 35.875V32.9453C60.8438 31.5469 61.1133 30.293 61.6523 29.1836C62.1914 28.0742 62.9492 27.2188 63.9258 26.6172C64.9023 26.0078 66 25.7031 67.2188 25.7031C68.9141 25.7031 70.293 26.1367 71.3555 27.0039C72.4258 27.8711 73.0469 29.0547 73.2188 30.5547H72.5859C72.375 29.1953 71.8086 28.1523 70.8867 27.4258C69.9648 26.6992 68.7422 26.3359 67.2188 26.3359C65.5 26.3359 64.1133 26.9492 63.0586 28.1758C62.0039 29.4023 61.4766 31.0156 61.4766 33.0156V35.7344C61.4766 37.0703 61.7227 38.2617 62.2148 39.3086C62.7148 40.3555 63.4141 41.168 64.3125 41.7461C65.2188 42.3164 66.2539 42.6016 67.418 42.6016C68.5586 42.6016 69.6172 42.4336 70.5938 42.0977C71.5703 41.7617 72.2422 41.3555 72.6094 40.8789V35.9102H67.3945V35.2656H73.2422V41.1719ZM89.7773 35.7461C89.7773 37.2227 89.5117 38.5312 88.9805 39.6719C88.457 40.8047 87.707 41.6836 86.7305 42.3086C85.7539 42.9258 84.6289 43.2344 83.3555 43.2344C81.4336 43.2344 79.8789 42.5508 78.6914 41.1836C77.5039 39.8164 76.9102 37.9727 76.9102 35.6523V33.1914C76.9102 31.7227 77.1719 30.418 77.6953 29.2773C78.2266 28.1367 78.9805 27.2578 79.957 26.6406C80.9414 26.0156 82.0664 25.7031 83.332 25.7031C84.6055 25.7031 85.7305 26.0156 86.707 26.6406C87.6914 27.2578 88.4492 28.1406 88.9805 29.2891C89.5117 30.4297 89.7773 31.7305 89.7773 33.1914V35.7461ZM89.1445 33.168C89.1445 31.1055 88.6211 29.4531 87.5742 28.2109C86.5273 26.9609 85.1133 26.3359 83.332 26.3359C81.5742 26.3359 80.1719 26.957 79.125 28.1992C78.0781 29.4336 77.5547 31.1172 77.5547 33.25V35.7461C77.5547 37.1055 77.7891 38.3086 78.2578 39.3555C78.7344 40.3945 79.4102 41.1953 80.2852 41.7578C81.1602 42.3203 82.1836 42.6016 83.3555 42.6016C85.1367 42.6016 86.5469 41.9805 87.5859 40.7383C88.625 39.4961 89.1445 37.8008 89.1445 35.6523V33.168Z" fill="#666666"/>
</svg>
